<?xml version="1.0" encoding="UTF-8"?>
<svg xmlns="http://www.w3.org/2000/svg" xmlns:xlink="http://www.w3.org/1999/xlink" width="200px" height="182px" viewBox="0 0 199 182" version="1.1">
<g id="surface1">
<path style=" stroke:none;fill-rule:nonzero;fill:rgb(0%,32.54902%,61.176471%);fill-opacity:1;" d="M 86.441406 0.09375 C 74.160156 0.902344 64.332031 3.226562 54.179688 7.714844 C 40.484375 13.773438 28.28125 23.359375 18.921875 35.417969 C 13.355469 42.570312 8.503906 51.421875 5.394531 60.070312 C 2.78125 67.332031 1.179688 74.515625 0.359375 82.742188 C -0.015625 86.574219 -0.015625 95.441406 0.375 99.257812 C 1.507812 110.742188 4.230469 120.542969 9 130.5 C 21.625 156.789062 46.421875 175.609375 75.015625 180.597656 C 80.9375 181.625 84.355469 181.90625 90.792969 181.90625 C 96.1875 181.90625 97.898438 181.8125 102.609375 181.207031 C 128.480469 177.886719 151.96875 163.222656 166.460938 141.332031 C 174.886719 128.601562 179.707031 114.871094 181.308594 99.023438 C 181.617188 95.910156 181.570312 85.375 181.230469 82.195312 C 180.792969 78.222656 179.953125 72.957031 179.394531 70.867188 L 179.253906 70.292969 L 175.246094 72.722656 C 173.050781 74.046875 171.203125 75.183594 171.125 75.246094 C 171.0625 75.308594 171.109375 75.917969 171.234375 76.601562 C 172.074219 81.121094 172.445312 85.421875 172.445312 90.84375 C 172.460938 96.890625 172.042969 101.441406 170.921875 107.082031 C 167.050781 126.824219 155.8125 144.539062 139.441406 156.789062 C 135.476562 159.75 131.789062 161.992188 127.019531 164.375 C 117.332031 169.191406 107.367188 171.886719 96.3125 172.667969 C 93 172.898438 85.351562 172.757812 82.242188 172.433594 C 72.527344 171.355469 63.585938 168.785156 54.957031 164.546875 C 46.359375 160.324219 39.269531 155.183594 32.492188 148.25 C 27.625 143.277344 24.097656 138.710938 20.492188 132.714844 C 19 130.234375 16.183594 124.5625 15.066406 121.773438 C 12.234375 114.699219 10.417969 107.359375 9.53125 99.414062 C 9.125 95.738281 9.125 86.261719 9.53125 82.585938 C 11.378906 65.898438 17.503906 51.359375 28.140625 38.488281 C 30.207031 35.980469 35.898438 30.277344 38.402344 28.203125 C 43.703125 23.808594 48.414062 20.722656 54.414062 17.71875 C 65.808594 12 77.78125 9.195312 90.792969 9.195312 C 100.027344 9.195312 108.160156 10.503906 116.679688 13.324219 C 123.597656 15.628906 129.769531 18.652344 136.035156 22.84375 C 140.371094 25.726562 143.328125 28.109375 147.554688 32.097656 L 149.667969 34.09375 L 153.386719 31.851562 C 155.421875 30.601562 157.195312 29.527344 157.320312 29.464844 C 157.957031 29.09375 150.523438 22.125 145.285156 18.199219 C 131.835938 8.070312 116.382812 2.105469 99.1875 0.390625 C 96.933594 0.15625 88.398438 -0.03125 86.441406 0.09375 Z M 86.441406 0.09375 "/>
<path style=" stroke:none;fill-rule:nonzero;fill:rgb(0%,32.54902%,61.176471%);fill-opacity:1;" d="M 178.945312 23.375 C 176.269531 23.636719 175.058594 24.136719 170.75 26.691406 C 168.324219 28.140625 167.316406 28.8125 167.378906 28.96875 C 167.441406 29.140625 186.171875 60.382812 186.34375 60.597656 C 186.375 60.628906 187.945312 59.710938 189.859375 58.574219 C 193 56.6875 193.464844 56.34375 194.800781 55.003906 C 196.527344 53.277344 197.523438 51.71875 198.207031 49.628906 C 199.28125 46.402344 199.25 43.242188 198.113281 40.1875 C 197.710938 39.066406 192.9375 30.914062 191.601562 29.046875 C 188.847656 25.164062 183.796875 22.90625 178.945312 23.375 Z M 178.945312 23.375 "/>
<path style=" stroke:none;fill-rule:nonzero;fill:rgb(0%,32.54902%,61.176471%);fill-opacity:1;" d="M 142.796875 43.566406 C 110.320312 63.1875 102.703125 67.796875 99.390625 69.792969 C 97.742188 70.789062 96.390625 71.664062 96.390625 71.742188 C 96.390625 71.816406 100.664062 78.984375 105.90625 87.679688 C 111.890625 97.621094 115.480469 103.449219 115.605469 103.402344 C 115.730469 103.355469 175.867188 67.066406 183.734375 62.296875 L 184.230469 61.984375 L 183.964844 61.535156 C 180.746094 56.082031 165.140625 30.324219 165.03125 30.277344 C 164.9375 30.246094 154.941406 36.230469 142.796875 43.566406 Z M 142.796875 43.566406 "/>
<path style=" stroke:none;fill-rule:nonzero;fill:rgb(0%,32.54902%,61.176471%);fill-opacity:1;" d="M 42.597656 56.40625 L 42.597656 70.898438 L 56.949219 70.898438 C 64.847656 70.898438 71.34375 70.867188 71.375 70.835938 C 71.40625 70.804688 71.421875 64.277344 71.390625 56.34375 L 71.359375 41.917969 L 42.597656 41.917969 Z M 69.929688 56.359375 L 69.882812 69.261719 L 44.152344 69.261719 L 44.105469 56.359375 L 44.074219 43.472656 L 69.960938 43.472656 Z M 69.929688 56.359375 "/>
<path style=" stroke:none;fill-rule:nonzero;fill:rgb(0%,32.54902%,61.176471%);fill-opacity:1;" d="M 93.234375 74.515625 C 86.457031 86.058594 80.175781 96.875 80.175781 97 C 80.175781 97.09375 81.386719 99.179688 82.863281 101.628906 L 85.554688 106.097656 L 86.503906 106.019531 C 87.03125 105.972656 92.316406 105.742188 98.257812 105.492188 C 111.640625 104.914062 113.179688 104.835938 113.179688 104.742188 C 113.179688 104.664062 94.371094 73.375 94.214844 73.191406 C 94.152344 73.113281 93.714844 73.703125 93.234375 74.515625 Z M 93.234375 74.515625 "/>
<path style=" stroke:none;fill-rule:nonzero;fill:rgb(0%,32.54902%,61.176471%);fill-opacity:1;" d="M 42.597656 90.609375 L 42.597656 105.023438 L 71.359375 105.023438 L 71.390625 90.609375 L 71.4375 76.195312 L 42.597656 76.195312 Z M 69.882812 90.609375 L 69.882812 103.542969 L 44.152344 103.542969 L 44.152344 90.640625 C 44.152344 83.550781 44.152344 77.722656 44.152344 77.675781 C 44.152344 77.628906 49.9375 77.613281 57.027344 77.644531 L 69.882812 77.675781 Z M 69.882812 90.609375 "/>
<path style=" stroke:none;fill-rule:nonzero;fill:rgb(0%,32.54902%,61.176471%);fill-opacity:1;" d="M 77.191406 101.984375 C 75.761719 104.433594 74.609375 106.457031 74.640625 106.488281 C 74.71875 106.550781 84.792969 106.097656 84.855469 106.035156 C 84.886719 106.003906 80.066406 97.886719 79.832031 97.574219 C 79.816406 97.542969 78.621094 99.539062 77.191406 101.984375 Z M 77.191406 101.984375 "/>
<path style=" stroke:none;fill-rule:nonzero;fill:rgb(0%,32.54902%,61.176471%);fill-opacity:1;" d="M 42.597656 124.890625 L 42.597656 139.304688 L 71.359375 139.304688 L 71.390625 131.808594 L 71.4375 124.316406 L 72.914062 123.847656 C 75.121094 123.160156 80.71875 121.789062 83.796875 121.167969 C 90.25 119.859375 96.671875 119.078125 103.589844 118.75 C 106.152344 118.628906 106.730469 118.550781 106.976562 118.332031 C 107.382812 117.972656 107.367188 117.007812 106.960938 116.632812 C 106.683594 116.367188 106.417969 116.351562 103.960938 116.445312 C 93.917969 116.820312 82.894531 118.582031 73.226562 121.386719 C 72.324219 121.632812 71.546875 121.851562 71.46875 121.851562 C 71.40625 121.851562 71.375 119.296875 71.390625 116.164062 L 71.4375 110.476562 L 42.597656 110.476562 Z M 69.882812 117.164062 L 69.882812 122.351562 L 67.316406 123.253906 C 65.902344 123.753906 63.992188 124.46875 63.042969 124.859375 C 59.652344 126.261719 58.253906 126.152344 56.527344 124.378906 C 55.566406 123.378906 54.664062 122.085938 53.371094 119.828125 C 52.796875 118.84375 52.238281 117.910156 52.113281 117.753906 C 51.585938 117.132812 50.214844 117.707031 50.214844 118.550781 C 50.214844 118.75 50.714844 119.84375 51.335938 120.980469 C 54.804688 127.367188 57.042969 129.332031 59.871094 128.492188 C 60.351562 128.367188 61.535156 127.914062 62.515625 127.492188 C 63.945312 126.871094 69.632812 124.8125 69.898438 124.8125 C 69.929688 124.8125 69.945312 127.742188 69.929688 131.3125 L 69.882812 137.824219 L 44.152344 137.824219 L 44.152344 124.921875 C 44.152344 117.832031 44.152344 112.003906 44.152344 111.957031 C 44.152344 111.910156 49.9375 111.894531 57.027344 111.910156 L 69.882812 111.957031 Z M 69.882812 117.164062 "/>
</g>
</svg>
